<svg width="161.000244" height="32.000000" viewBox="0 0 161 32" fill="none" xmlns="http://www.w3.org/2000/svg" xmlns:xlink="http://www.w3.org/1999/xlink">
	<desc>
			Created with Pixso.
	</desc>
	<defs/>
	<path id="Vector" d="M0 10.66L0 16.58C2.01 16.58 4.01 16.98 5.87 17.75C7.73 18.53 9.42 19.66 10.85 21.1C12.27 22.53 13.4 24.23 14.18 26.1C14.95 27.97 15.34 29.97 15.34 32L21.24 32C21.23 26.34 18.99 20.92 15.01 16.92C11.03 12.92 5.63 10.67 0 10.66L0 10.66Z" fill="#FFFFFF" fill-opacity="1.000000" fill-rule="nonzero"/>
	<path id="Vector" d="M29.48 0L20.13 0C24.86 3 28.86 7.02 31.86 11.77L31.86 2.39C31.86 1.75 31.61 1.14 31.16 0.7C30.71 0.25 30.11 0 29.48 0Z" fill="#FFFFFF" fill-opacity="1.000000" fill-rule="nonzero"/>
	<path id="Vector" d="M5.86 0L0 0L0 5.33C7.04 5.34 13.78 8.15 18.76 13.15C23.74 18.15 26.54 24.92 26.55 32L31.86 32L31.86 26.1C30.66 19.62 27.53 13.66 22.89 9C18.25 4.34 12.32 1.2 5.86 0Z" fill="#FFFFFF" fill-opacity="1.000000" fill-rule="nonzero"/>
	<path id="Vector" d="M42.57 3.52L46.31 3.52L46.31 22.46L42.57 22.46L42.57 3.52Z" fill="#FFFFFF" fill-opacity="1.000000" fill-rule="evenodd"/>
	<path id="Vector" d="M60.07 11.72C59.44 11.15 58.71 10.72 57.92 10.43C56.22 9.83 54.36 9.83 52.66 10.43C51.86 10.71 51.13 11.15 50.51 11.72C49.9 12.29 49.41 12.97 49.08 13.74C48.73 14.57 48.55 15.47 48.55 16.37C48.55 17.27 48.73 18.17 49.08 19C49.41 19.77 49.9 20.45 50.51 21.02C51.13 21.59 51.86 22.03 52.66 22.31C54.36 22.91 56.22 22.91 57.92 22.31C58.71 22.03 59.44 21.59 60.06 21.02C60.68 20.45 61.16 19.77 61.5 19C61.84 18.17 62.02 17.27 62.02 16.37C62.02 15.47 61.84 14.57 61.5 13.74C61.16 12.98 60.68 12.29 60.07 11.72ZM57.5 18.6C56.89 19.15 56.1 19.45 55.29 19.45C54.47 19.45 53.69 19.15 53.08 18.6C52.57 17.97 52.29 17.18 52.29 16.37C52.29 15.56 52.57 14.77 53.08 14.14C53.69 13.59 54.47 13.29 55.29 13.29C56.1 13.29 56.89 13.59 57.5 14.14C58.01 14.77 58.28 15.56 58.28 16.37C58.28 17.18 58.01 17.97 57.5 18.6Z" fill="#FFFFFF" fill-opacity="1.000000" fill-rule="nonzero"/>
	<path id="Vector" d="M73.5 11.88L73.45 11.88C73.28 11.64 73.08 11.42 72.85 11.22C72.58 10.98 72.28 10.77 71.96 10.61C71.14 10.19 70.23 9.97 69.31 9.98C68.51 9.97 67.71 10.15 66.99 10.52C66.32 10.87 65.73 11.35 65.26 11.94C64.77 12.54 64.4 13.23 64.16 13.96C63.9 14.72 63.77 15.52 63.77 16.32C63.76 17.18 63.91 18.04 64.2 18.85C64.46 19.59 64.87 20.27 65.4 20.84C65.93 21.4 66.57 21.85 67.29 22.14C68.06 22.46 68.89 22.62 69.73 22.61C70.35 22.59 70.96 22.47 71.54 22.24C72.19 22 72.74 21.56 73.15 21L73.2 21L73.2 22.18C73.21 22.57 73.15 22.97 73.01 23.33C72.87 23.7 72.66 24.04 72.39 24.32C72.04 24.63 71.64 24.86 71.21 25C70.77 25.15 70.31 25.2 69.86 25.16C69.13 25.17 68.41 25.03 67.75 24.74C67.09 24.44 66.47 24.05 65.91 23.59L63.84 26.69C64.69 27.37 65.68 27.86 66.74 28.1C67.79 28.35 68.86 28.47 69.93 28.47C72.29 28.47 74.05 27.87 75.21 26.68C76.36 25.48 76.94 23.73 76.94 21.43L76.94 10.28L73.5 10.28L73.5 11.88ZM73.27 17.43C73.13 17.79 72.91 18.11 72.64 18.39C72.36 18.66 72.03 18.89 71.68 19.05C71.31 19.21 70.9 19.3 70.5 19.3C70.09 19.3 69.69 19.21 69.32 19.05C68.97 18.89 68.65 18.66 68.37 18.39C68.1 18.11 67.88 17.79 67.73 17.43C67.58 17.07 67.51 16.68 67.51 16.29C67.51 15.91 67.58 15.52 67.73 15.16C67.88 14.8 68.1 14.48 68.37 14.2C68.65 13.93 68.97 13.7 69.32 13.54C69.69 13.37 70.09 13.29 70.5 13.29C70.9 13.29 71.31 13.37 71.68 13.54C72.03 13.7 72.36 13.92 72.64 14.2C73.05 14.62 73.33 15.15 73.44 15.72C73.56 16.3 73.5 16.89 73.27 17.43Z" fill="#FFFFFF" fill-opacity="1.000000" fill-rule="nonzero"/>
	<path id="Vector" d="M91 11.72C90.37 11.15 89.64 10.72 88.85 10.43C87.15 9.83 85.29 9.83 83.59 10.43C82.79 10.71 82.07 11.15 81.44 11.72C80.83 12.29 80.34 12.97 80.01 13.74C79.66 14.57 79.48 15.47 79.48 16.37C79.48 17.27 79.66 18.17 80.01 19C80.34 19.77 80.83 20.45 81.44 21.02C82.06 21.59 82.79 22.03 83.59 22.31C85.29 22.91 87.15 22.91 88.85 22.31C89.64 22.03 90.37 21.59 91 21.02C91.61 20.45 92.1 19.77 92.43 19C92.78 18.17 92.95 17.27 92.95 16.37C92.95 15.47 92.78 14.57 92.43 13.74C92.1 12.97 91.61 12.29 91 11.72ZM88.43 18.6C87.82 19.15 87.03 19.45 86.22 19.45C85.4 19.45 84.62 19.15 84.01 18.6C83.5 17.97 83.22 17.18 83.22 16.37C83.22 15.56 83.5 14.77 84.01 14.14C84.62 13.59 85.4 13.29 86.22 13.29C87.03 13.29 87.82 13.59 88.43 14.14C88.94 14.77 89.21 15.56 89.21 16.37C89.21 17.18 88.94 17.97 88.43 18.6Z" fill="#FFFFFF" fill-opacity="1.000000" fill-rule="nonzero"/>
	<path id="Vector" d="M95.91 10.37L97.92 10.37L97.92 22.46L95.91 22.46L95.91 10.37Z" fill="#FFFFFF" fill-opacity="1.000000" fill-rule="evenodd"/>
	<path id="Vector" d="M96.91 4.17C96.72 4.16 96.53 4.2 96.35 4.28C96.17 4.35 96.01 4.46 95.87 4.61C95.67 4.81 95.53 5.08 95.47 5.36C95.42 5.65 95.45 5.94 95.56 6.21C95.67 6.48 95.86 6.71 96.1 6.87C96.34 7.03 96.62 7.12 96.91 7.12C97.2 7.12 97.49 7.03 97.73 6.87C97.97 6.71 98.16 6.48 98.27 6.21C98.38 5.94 98.41 5.65 98.35 5.36C98.3 5.08 98.16 4.81 97.96 4.61C97.82 4.46 97.66 4.35 97.48 4.28C97.3 4.2 97.11 4.16 96.91 4.17Z" fill="#FFFFFF" fill-opacity="1.000000" fill-rule="nonzero"/>
	<path id="Vector" d="M112.76 11.87C112.2 11.29 111.52 10.84 110.77 10.54C109.95 10.21 109.07 10.05 108.18 10.06C107.35 10.05 106.53 10.24 105.78 10.6C105.04 10.97 104.39 11.49 103.86 12.13L103.81 12.13L103.81 10.37L101.8 10.37L101.8 28.35L103.81 28.35L103.81 20.31L103.86 20.31C104.28 21.05 104.9 21.65 105.65 22.06C106.52 22.55 107.5 22.79 108.49 22.77C109.31 22.77 110.11 22.61 110.86 22.29C111.58 21.98 112.24 21.53 112.78 20.96C113.33 20.38 113.76 19.69 114.05 18.95C114.67 17.31 114.67 15.51 114.05 13.88C113.76 13.13 113.32 12.45 112.76 11.87ZM112.05 18.18C111.87 18.71 111.57 19.19 111.19 19.6C110.81 20.01 110.35 20.34 109.84 20.56C108.72 21.02 107.45 21.02 106.32 20.56C105.81 20.34 105.35 20.01 104.97 19.6C104.59 19.19 104.3 18.71 104.11 18.18C103.72 17.04 103.72 15.79 104.11 14.65C104.3 14.12 104.59 13.64 104.97 13.23C105.35 12.82 105.81 12.49 106.32 12.27C107.45 11.8 108.72 11.8 109.84 12.27C110.36 12.49 110.82 12.82 111.2 13.23C111.58 13.64 111.87 14.12 112.06 14.65C112.45 15.79 112.45 17.04 112.06 18.18L112.05 18.18Z" fill="#FFFFFF" fill-opacity="1.000000" fill-rule="nonzero"/>
	<path id="Vector" d="M124.62 16.42C124.24 16.13 123.82 15.91 123.36 15.76C122.87 15.59 122.36 15.46 121.85 15.36C121.46 15.29 121.08 15.2 120.7 15.1C120.36 15.01 120.04 14.89 119.72 14.74C119.47 14.62 119.24 14.46 119.05 14.26C118.89 14.08 118.8 13.84 118.81 13.6C118.8 13.34 118.88 13.08 119.03 12.86C119.17 12.65 119.36 12.47 119.58 12.33C119.82 12.19 120.07 12.09 120.34 12.02C120.61 11.96 120.9 11.92 121.18 11.92C121.72 11.9 122.25 12.04 122.71 12.32C123.12 12.58 123.47 12.94 123.72 13.37L125.4 12.26C125.03 11.52 124.42 10.93 123.68 10.58C122.94 10.23 122.13 10.05 121.31 10.06C120.75 10.06 120.19 10.14 119.66 10.29C119.15 10.44 118.66 10.67 118.22 10.97C117.8 11.25 117.44 11.63 117.19 12.08C116.93 12.55 116.79 13.08 116.8 13.63C116.78 14.16 116.9 14.68 117.15 15.15C117.38 15.54 117.69 15.88 118.07 16.12C118.49 16.39 118.95 16.59 119.42 16.73C119.94 16.88 120.48 17.02 121.04 17.14C121.37 17.21 121.69 17.29 122 17.37C122.29 17.45 122.56 17.57 122.82 17.72C123.05 17.86 123.24 18.04 123.4 18.25C123.55 18.49 123.63 18.77 123.62 19.05C123.63 19.35 123.55 19.64 123.39 19.89C123.23 20.13 123.02 20.33 122.77 20.48C122.5 20.64 122.21 20.75 121.91 20.81C121.6 20.88 121.28 20.91 120.97 20.92C120.34 20.94 119.72 20.79 119.18 20.48C118.68 20.16 118.24 19.75 117.88 19.28L116.29 20.52C116.78 21.29 117.48 21.9 118.31 22.29C119.15 22.63 120.06 22.79 120.97 22.77C121.56 22.77 122.15 22.7 122.73 22.56C123.28 22.43 123.8 22.21 124.27 21.9C124.72 21.6 125.1 21.2 125.36 20.72C125.65 20.18 125.79 19.58 125.78 18.97C125.79 18.44 125.69 17.92 125.47 17.45C125.27 17.04 124.98 16.69 124.62 16.42Z" fill="#FFFFFF" fill-opacity="1.000000" fill-rule="nonzero"/>
	<path id="Vector" d="M139.08 19.59L139.08 10.37L137.07 10.37L137.07 16.26C137.08 16.9 137 17.53 136.85 18.15C136.72 18.68 136.5 19.18 136.18 19.62C135.88 20.03 135.48 20.36 135.02 20.58C134.49 20.81 133.92 20.93 133.34 20.91C132.95 20.94 132.55 20.88 132.19 20.73C131.83 20.58 131.51 20.34 131.25 20.03C130.77 19.33 130.54 18.48 130.58 17.63L130.58 10.37L128.58 10.37L128.58 17.83C128.57 18.51 128.66 19.18 128.85 19.83C129.01 20.41 129.3 20.95 129.69 21.4C130.08 21.84 130.57 22.19 131.11 22.41C131.76 22.66 132.46 22.79 133.16 22.77C133.63 22.77 134.09 22.71 134.55 22.58C134.95 22.46 135.34 22.28 135.7 22.06C136.03 21.86 136.33 21.61 136.59 21.32C136.82 21.07 137.02 20.78 137.17 20.47L137.22 20.47C137.22 20.82 137.23 21.15 137.25 21.48C137.26 21.81 137.27 22.14 137.27 22.46L139.18 22.46C139.18 22.07 139.16 21.63 139.12 21.15C139.09 20.66 139.07 20.14 139.08 19.59Z" fill="#FFFFFF" fill-opacity="1.000000" fill-rule="nonzero"/>
	<path id="Vector" d="M160.76 13.01C160.63 12.43 160.37 11.88 159.99 11.41C159.61 10.96 159.13 10.61 158.58 10.4C157.88 10.15 157.15 10.04 156.42 10.06C155.62 10.02 154.83 10.23 154.15 10.66C153.53 11.11 153 11.69 152.61 12.36C152.5 12.15 152.37 11.91 152.21 11.64C152.03 11.36 151.8 11.1 151.53 10.9C151.2 10.64 150.83 10.44 150.44 10.31C149.91 10.13 149.36 10.04 148.8 10.06C148.33 10.06 147.87 10.12 147.41 10.25C147.01 10.37 146.62 10.55 146.26 10.77C145.93 10.97 145.63 11.22 145.37 11.51C145.14 11.76 144.94 12.05 144.79 12.36L144.74 12.36C144.74 12.01 144.73 11.68 144.71 11.35C144.7 11.02 144.69 10.69 144.69 10.37L142.78 10.37C142.78 10.76 142.8 11.2 142.84 11.68C142.87 12.17 142.89 12.68 142.89 13.24L142.89 22.46L144.89 22.46L144.89 16.57C144.89 15.93 144.96 15.3 145.11 14.68C145.24 14.15 145.47 13.65 145.78 13.21C146.08 12.8 146.48 12.47 146.94 12.25C147.47 12.02 148.05 11.9 148.63 11.92C148.97 11.89 149.32 11.95 149.63 12.1C149.94 12.24 150.21 12.47 150.4 12.76C150.83 13.64 151.02 14.63 150.94 15.61L150.94 22.46L152.95 22.46L152.95 15.48C152.94 14.98 153.02 14.49 153.19 14.02C153.34 13.61 153.57 13.23 153.86 12.9C154.14 12.59 154.48 12.35 154.85 12.17C155.23 12 155.64 11.91 156.06 11.92C156.56 11.9 157.05 12 157.5 12.2C157.86 12.37 158.17 12.63 158.4 12.95C158.63 13.27 158.78 13.63 158.86 14.01C158.95 14.41 158.99 14.82 158.99 15.22L158.99 22.46L161 22.46L161 15.12C161 14.41 160.92 13.7 160.76 13.01Z" fill="#FFFFFF" fill-opacity="1.000000" fill-rule="nonzero"/>
</svg>
