<svg width="24.000000" height="24.000000" viewBox="0 0 24 24" fill="none" xmlns="http://www.w3.org/2000/svg" xmlns:xlink="http://www.w3.org/1999/xlink">
	<desc>
			Created with Pixso.
	</desc>
	<defs>
		<clipPath id="clip8_564">
			<rect id="Search" rx="0.000000" width="23.000000" height="23.000000" transform="translate(0.500000 0.500000)" fill="white" fill-opacity="0"/>
		</clipPath>
	</defs>
	<rect id="Search" rx="0.000000" width="23.000000" height="23.000000" transform="translate(0.500000 0.500000)" fill="#FFFFFF" fill-opacity="0"/>
	<g clip-path="url(#clip8_564)">
		<path id="Vector" d="M21.7 20.29L18.02 16.61C19.46 14.8 20.16 12.52 19.96 10.22C19.77 7.92 18.71 5.79 16.99 4.25C15.27 2.71 13.03 1.89 10.72 1.95C8.42 2.02 6.22 2.96 4.59 4.59C2.96 6.22 2.02 8.42 1.95 10.72C1.89 13.03 2.71 15.27 4.25 16.99C5.79 18.71 7.92 19.77 10.22 19.96C12.52 20.16 14.8 19.46 16.61 18.02L20.29 21.7L21.7 20.29ZM11 18C9.61 18 8.26 17.58 7.11 16.82C5.95 16.05 5.06 14.95 4.53 13.67C4 12.39 3.86 10.99 4.13 9.63C4.4 8.27 5.07 7.02 6.05 6.05C7.02 5.07 8.27 4.4 9.63 4.13C10.99 3.86 12.39 4 13.67 4.53C14.95 5.06 16.05 5.95 16.82 7.11C17.58 8.26 18 9.61 18 11C17.99 12.85 17.25 14.63 15.94 15.94C14.63 17.25 12.85 17.99 11 18Z" fill="#FFFFFF" fill-opacity="1.000000" fill-rule="nonzero"/>
	</g>
</svg>
